<?xml version="1.0" encoding="utf-8"?>
<!-- Generator: Adobe Illustrator 23.0.0, SVG Export Plug-In . SVG Version: 6.00 Build 0)  -->
<svg version="1.1" id="Слой_1" xmlns="http://www.w3.org/2000/svg" xmlns:xlink="http://www.w3.org/1999/xlink" x="0px" y="0px"
	 viewBox="0 0 1278.1 176.9" style="enable-background:new 0 0 1278.1 176.9;" xml:space="preserve">
<path d="M544,172.8c-45.6,0.3-80.9-31.3-88.6-70.8c-6-30.9,2.9-57.7,25.9-79.2C500.8,4.6,524.5-1,550.4,2
	c32.5,3.8,58.9,19.3,80.3,43.3C646,62.4,660,80.7,674.5,98.5c11.8,14.6,23.9,28.9,39.1,40.2c19,14,40.1,21.8,63.8,19.4
	c32.2-3.2,57.2-17.9,69.3-49.2c6.4-16.5,5.1-33.8-0.6-50.4c-8-23.3-24.2-38.1-48.2-43.8c-15.7-3.7-30.9-2.6-45.5,5
	c-20.9,11-40.1,25.1-56.9,41.7c-1.6,1.6-3.1,3.3-4.8,4.8c-3.3,3-7,3-9.7,0.3s-2.4-6.3,0.7-9.3c4.7-4.7,9.5-9.2,14.4-13.6
	c14.7-13.3,30.9-24.7,48.3-34C766-2,788.3-2.8,810.9,5.6c30,11.1,45.7,33.9,51.1,64.5c3.1,17.2,1.3,33.9-6,49.8
	c-9.2,20.1-24.6,34.2-44.7,42.8c-36.8,15.6-71.3,9.8-103.6-12.6c-17.2-12-30.6-27.9-43.7-44c-14-17.2-27.4-34.8-41.9-51.4
	C606.8,37,588,23.9,565,17.7c-24.6-6.6-48.2-5.5-69.8,9.9c-21.9,15.7-33.3,46.4-27.1,72.8c5.3,22.6,17.9,39.9,38.2,50.8
	c21.2,11.3,43.5,11.9,66,3.9c18-6.4,32.3-18.3,45.5-31.6c3.3-3.4,6.5-6.9,9.7-10.4c3.6-4,7.4-4.6,10.4-1.8s2.7,6.3-0.8,10.2
	c-12.4,14.2-26,27.1-42.3,36.7C578.8,167.7,561.5,173.2,544,172.8z"/>
<path d="M197,82.2c0,1.3,0,2.6,0,3.8c0.2,15.1,0.3,30.2,0.7,45.3c0.1,3.4-0.9,4.8-4.4,4.5c-2.6-0.3-5.2-0.3-7.9,0
	c-3.4,0.4-4.2-1.1-4.1-4.3c0.1-28.2,0-56.5,0.1-84.7c0-5.2,0.7-5.9,5.8-6c9.1-0.2,9.1-0.1,12.5,8.2c6,14.7,12.1,29.3,18.2,43.9
	c0.4,1.1,1.2,1.9,2.3,2.4c0-1.3,0-2.5,0-3.8c-0.3-15.5-0.5-31-1-46.5c-0.1-3.2,1-4.4,3.9-4.4c3.2-0.1,6.5,0,9.7,0.3
	c1.1,0.3,1.9,1.1,2.3,2.2c0.4,1.3,0.5,2.7,0.4,4.1c0,28.4,0,56.7,0,85.1c0,2.3-0.8,3.6-3.3,3.5c-0.1,0-0.3,0-0.4,0
	c-10.1,0.5-10.3,0.6-14.3-8.8c-5.9-13.7-11.7-27.6-17.5-41.3c-0.6-1.3-1.3-2.5-1.9-3.8L197,82.2z"/>
<path d="M69.2,95.2c0-1.3,0-2.6,0-3.8c-0.4-15.6-0.7-31.2-1.1-46.8c-0.1-2.4,0.7-3.6,3-3.6c3.6,0,7.2-0.2,10.8,0.1
	c0.8,0.1,1.9,1.4,2.3,2.3c0.3,1.3,0.4,2.7,0.2,4.1c0,28.1,0,56.2,0,84.3c0,2.9-1,4-3.9,4c-10,0.3-10.1,0.4-14-8.7
	C60.6,113.4,54.9,99.6,49,85.8c-0.6-1.3-1.3-2.6-1.9-3.9L46,82.1c0,1.3,0,2.5,0,3.8c0.2,15.1,0.3,30.2,0.7,45.3
	c0.1,3.3-0.7,4.9-4.3,4.6c-2.9-0.2-5.7-0.2-8.6,0c-2.6,0.2-3.5-0.8-3.4-3.4c0.1-11,0-22,0-33c0-17.6,0-35.2,0-52.8
	c0-4.9,0.7-5.6,5.6-5.7c9.2-0.2,9.2-0.2,12.7,8.5c5.9,14.3,11.8,28.6,17.8,42.8c0.4,1.1,1.1,2.1,1.6,3.2L69.2,95.2z"/>
<path d="M1055.5,99.9c0,1.6,0,3.1,0,4.7c0,8.7,0,17.5,0.1,26.2c0.1,3.4-0.8,5-4.6,4.9c-11.2-0.1-11.2,0-11.2-11.2
	c0.1-25.9,0.1-51.7,0.1-77.6c0-5.5,0.5-6,6-6c5.4,0,10.7-0.1,16.1,0c14,0.2,23.5,9.3,25.2,23.3c1.3,11.6-3,20.6-11.8,27.6
	c-2.7,2.2-2.5,3.9-1.2,6.5c5.4,10.6,10.6,21.2,15.8,31.8c2.4,5,1.9,4.9-3.4,5.6c-9.1,1.2-14.6-1.4-17.6-10.8
	c-2.4-7.8-6.8-14.9-10.4-22.4c-0.5-1.1-1.2-2-1.8-3L1055.5,99.9z M1055.5,71.2L1055.5,71.2c0,3.1,0,6.2,0,9.3c0.1,4.2,1.9,5.4,6,4.1
	c6.8-2.3,10.8-9.5,9.6-17.5c-0.9-6-4-9.5-9.4-10.7c-4-0.9-6,0.6-6.1,4.7C1055.5,64.5,1055.6,67.8,1055.5,71.2L1055.5,71.2z"/>
<path d="M1174.3,85c-0.1,9.4-1.7,18.8-4.8,27.7c-4.8,13.2-17,22.6-29.6,22.9c-13.3,0.4-26.3-8.6-31.2-22.1
	c-5.7-15.4-6.3-32.1-1.7-47.8c4.1-14.5,17.9-25.1,32-24.9s28,10.8,31.9,25.2C1172.7,72.1,1173.3,78.6,1174.3,85z M1119,84.7
	c-0.2,10,0.8,17.7,4.1,25c3.1,6.7,8.4,10.5,15.9,10.6c7.3,0,12.8-3.6,15.7-10.2c6.4-15.1,6.2-30.4-0.7-45.3
	c-2.8-6.1-7.6-10.8-15-10.8s-11.8,4.8-15.1,10.7c-1.4,2.5-2.4,5.2-3,8C1119.9,77.3,1119.4,82,1119,84.7z"/>
<path d="M97.8,87.4c0-13.6,0-27.2,0-40.8c0-5.9,0.2-6,6.2-6c9.9-0.1,19.7-0.1,29.6-0.4c3-0.1,4.4,1,4.4,4s0,6.3,0.2,9.4
	c0.1,2.6-1.7,2.7-3.5,2.8c-5.4,0.1-10.7,0.1-16.1,0c-2.7-0.1-4,1-4,3.6c-0.1,4.5-0.2,9-0.4,13.5c-0.1,2.3,0.9,2.9,3.2,2.8
	c5.4-0.2,10.7-0.3,16.1,0c1.2,0.1,3.2,1.7,3.4,2.9c0.4,3.8,0.5,7.7,0.3,11.5c0,0.6-1.7,1.5-2.7,1.5c-5.4,0.2-10.7,0.2-16.1,0
	c-3.1-0.1-4.2,1-4.1,4.1c0.1,10.6,0,21.2,0.1,31.8c0,5.4-0.7,6.3-6,6.8H108c-8.7,0.6-10-0.2-10.2-8.8C97.6,113,97.8,100.2,97.8,87.4
	L97.8,87.4z"/>
<path d="M371,75.3c4.3-9.7,8.5-18.5,11.9-27.5c2.1-5.5,5.3-7.3,11-7c8,0.4,8.5,0.7,5.4,8c-5.6,13.1-11.5,26-17.1,39.1
	c-1.4,3.2-2.3,6.5-2.5,10c-0.5,11.2-0.5,22.5-0.5,33.7c0,3.4-1,4.9-4.5,4.5c-2.5-0.2-5-0.2-7.5,0c-3.4,0.3-4.3-1.3-4.2-4.4
	c0.1-10.9,0.1-21.7-0.2-32.6c-0.1-3.2-0.7-6.4-2-9.3c-6.5-14.5-13.3-28.8-19.9-43.2c-1.9-4.2-1.3-5.3,3.2-5.5
	c12.3-0.7,12.2-0.7,16.5,10.6c2.7,7,5.6,13.9,8.5,20.8C369.7,73.5,370.3,74.4,371,75.3z"/>
<path d="M938.5,136.7c-5.4-1-10.8-1.8-16.1-3.1c-4.2-1.1-5-2.8-4.2-6.9c0.5-2.5,1.1-4.9,1.9-7.2c1.1-3.3,2.3-3.6,5.3-1.6
	c1.4,0.9,2.6,1.9,4,2.7c6,3.3,13.7,2.1,17.1-2.4s2.2-13.1-2.4-17.6c-6-5.8-12.3-11.3-18.1-17.4c-8.4-8.8-9.5-20.5-3.1-31
	c7.6-12.4,21.6-13.9,33-9.4c2.5,1,2.5,3,1.9,5c-0.8,2.9-1.8,5.7-3.1,8.4c-0.5,0.8-2.6,1.3-3.8,1.1c-1.9-0.3-3.6-1.6-5.6-2.1
	c-6.2-1.5-11,2-11.3,8.4c-0.3,4.4,1.5,8.8,4.8,11.7c5.1,4.6,10.4,9,15.3,13.8c5.8,5.8,9.7,12.6,10.1,21.1c1,13.2-9,24.7-22.2,25.7
	c-0.2,0-0.4,0-0.6,0l-3,0.2L938.5,136.7z"/>
<path d="M977.1,89.6c0.3-13,1.9-26.7,12.6-37.3c8.7-8.6,19.1-13,31.5-11.8c4.8,0.5,5.8,1.6,5.7,6.5c0,3.1,0.8,7-0.7,9
	c-1.1,1.4-5.5,0.4-8.4,0.3c-11-0.2-17.8,4-22,14.1c-5.2,12.2-4.8,25.9,1,37.8c4.6,10,11.2,13.3,22.1,12.2c9.3-1,8.3-1.7,8.1,7.4
	c-0.1,7-0.2,7-7.2,7.3c-13.3,0.5-25-2.8-33.8-13.5c-5.6-6.9-7.4-15.2-8.4-23.7C977.5,95.4,977.4,93,977.1,89.6z"/>
<path d="M294.9,135.3c0-6.2,0-12.4,0-18.7c0.1-18.2,0.2-36.5,0.4-54.7c0-5.7,0-5.8-5.9-5.8c-1.7-0.1-3.5-0.1-5.2,0
	c-3.7,0.4-5.1-1.3-5.4-4.9c-0.6-10-0.4-10.3,9.6-10.3c11.4,0,22.7,0.1,34.1-0.1c3.7-0.1,5,1.3,4.7,4.8c-0.2,2.5,0.2,5.1-0.4,7.5
	c-0.6,1.5-1.8,2.5-3.3,2.9c-3.1,0.3-6.2,0.3-9.4,0.1c-2.6-0.1-3.5,1-3.5,3.6c-0.1,23.6-0.3,47.2-0.4,70.8c0,5.1,0,5.2-5.2,5.2
	c-2.9,0-5.8,0-8.6-0.1C296,135.6,295.4,135.5,294.9,135.3z"/>
<path d="M1239,135c0-5.4,0-10.5,0-15.6c-0.1-24.2-0.2-48.5-0.3-72.7c0-5.4,0.3-5.7,5.7-5.7h5.3c5.2,0,5.5,0.2,5.5,5.6
	c0,22.6,0,45.2,0,67.9c0,5.2,0,5.1,5.3,4.9c4.6-0.1,9.3,0,13.9-0.1c2.6-0.1,3.7,1,3.6,3.5c0,3,0.4,6,0.1,9c-0.1,1.2-1.6,3.2-2.5,3.2
	C1263.6,135.1,1251.8,135,1239,135z"/>
<path d="M1203,81.2c0,11.4,0.1,22.7,0,34.1c0,3.3,1.1,4.3,4.4,4.1c4.8-0.3,9.7-0.1,14.6-0.2c2.7-0.1,4,0.9,3.9,3.7
	c-0.1,3-0.1,6,0.1,9c0.1,2.2-0.9,3.2-3.1,3.2c-10.9,0.1-21.7,0.1-32.6,0.3c-2.6,0-3.2-1.1-3.2-3.4c-0.1-28.9-0.3-57.7-0.5-86.6
	c0-3.4,1.4-4.7,4.8-4.5c2.1,0.2,4.2,0.2,6.4,0c4.1-0.6,5.3,1.5,5.3,5.1C1203.1,57.7,1203.1,69.5,1203,81.2L1203,81.2z"/>
<path d="M151.2,88.2c0-14.4,0.1-28.7-0.1-43.1c0-3.4,1.1-4.7,4.6-4.6c13.8,0.3,12.3-1,12.5,11.9c0.3,26.1,0.2,52.2,0.5,78.4
	c0,3.7-1.5,4.9-4.9,4.9c-2.7-0.1-5.5,0-8.2,0.2c-3.4,0.4-4.3-1-4.3-4.2C151.3,117.2,151.2,102.7,151.2,88.2L151.2,88.2z"/>
<path d="M248.7,88.5c0-14.4,0-28.7,0-43.1c0-4.6,0.2-4.9,4.9-4.8c13.4,0.1,11.8-0.9,12,11.5c0.3,26.4,0.3,52.7,0.5,79.1
	c0,3.1-1.2,4.4-4.1,4.4c-3.1,0.1-6.3-0.1-9.4,0.3s-3.9-1.1-3.9-3.9C248.8,117.5,248.7,103,248.7,88.5L248.7,88.5z"/>
<path d="M17.6,88.7c0,14-0.1,28,0.1,41.9c0,3.6-1.4,5-4.8,5c-3,0-6-0.1-9,0.2s-3.6-0.8-3.6-3.6c0-11-0.3-22-0.3-32.9
	c0-18.3,0.2-36.7,0.2-55c0-2.7,1-3.9,3.7-3.8s5.5,0.2,8.2,0.1c3.5-0.1,4.8,1.6,4.8,5c-0.1,14.4,0,28.7,0,43L17.6,88.7z"/>
<path d="M482,67.3c1.1-3,1.8-5.4,2.8-7.7c5.9-14,16.5-22.9,30.9-27.1c1.3-0.4,3.8,0.5,4.5,1.6c1.3,2.2-0.5,3.6-2.7,4.3
	c-14.8,4.7-24.5,14.3-29.1,29.2c-0.7,1.3-2,2.3-3.5,2.5C484,70.1,483,68.3,482,67.3z"/>
<path d="M834.8,102.2c-0.8,2.2-1.3,3.7-1.8,5.3c-5.4,14.8-15.9,24.4-30.7,29.4c-0.5,0.2-1,0.3-1.4,0.4c-2.1,0.5-4.2,0.2-4.4-2.1
	c-0.1-1.2,1.3-3.1,2.5-3.8c3.5-1.9,7.4-2.9,10.8-4.9c8.8-5.1,14.3-12.9,17.7-22.4c0.3-0.9,0.3-2.2,1-2.8c1-0.9,2.4-1.9,3.5-1.7
	S834,101.3,834.8,102.2z"/>
<path d="M784.6,140.9c-2,1.4-3.4,3.1-4.3,2.9c-1.3-0.3-2.2-2-3.3-3.1c1.1-1,2.1-2.6,3.3-2.7S782.5,139.5,784.6,140.9z"/>
<path d="M533.3,27.5c1.5,1.9,3.1,3.1,3.1,4.2s-1.6,2.3-2.5,3.4c-1.1-1-2.9-1.9-3.2-3.1C530.5,31,532,29.6,533.3,27.5z"/>
</svg>
